<svg id="Layer_1" data-name="Layer 1" xmlns="http://www.w3.org/2000/svg" viewBox="0 0 80.92 100.51">
  <defs>
    <style>.cls-1{fill:#002a41}.cls-2{fill:#0071b5}</style>
  </defs>
  <path class="cls-1" d="M.1.09v54.36l40.46 23.06V61.83L13.49 46.41V22.17L40.56 37.6V23.16L.1.09z" transform="translate(-.1 -.09)"/>
  <path class="cls-2" d="M81 .09v54.36L40.56 77.51V61.83l27.06-15.42V22.17L40.56 37.6V23.16L81 .09zM.1 100.6V46.24l40.46-23.06v15.68L13.49 54.29v23l27.07-15.43v15.68L.1 100.6z" transform="translate(-.1 -.09)"/>
  <path class="cls-1" d="M81 100.6V46.24L40.56 23.18v15.68l27.06 15.43v23L40.56 61.86v15.68L81 100.6z" transform="translate(-.1 -.09)"/>
</svg>
