<svg id="Layer_1" data-name="Layer 1" xmlns="http://www.w3.org/2000/svg" viewBox="0 0 104.54 100.06">
  <defs>
    <style>
      .cls-1,.cls-15,.cls-53{fill:none}.cls-2{fill:#fff}.cls-3{fill:#ba8449}.cls-4{fill:#fff8ee}.cls-6{opacity:.3}.cls-9{fill:#895b2e}.cls-10{fill:#e5d0ae}.cls-12{opacity:.15}.cls-13{fill:#e3ab5e}.cls-14{fill:#fcd4c3}.cls-15{stroke:#f8a38f}.cls-15,.cls-53{stroke-miterlimit:10}.cls-15{stroke-width:2px}.cls-17{opacity:.5}.cls-20{opacity:.25}.cls-31{fill:#f8a38f}.cls-36{fill:#d8cab2}.cls-38{fill:#333}.cls-43{fill:#ffdc99}.cls-53{stroke:#333;stroke-width:4px}.cls-62{fill:#d0dddc}.cls-69{opacity:.1}
    </style>
    <clipPath id="clip-path" transform="translate(-1.05 -.19)">
      <path class="cls-1" d="M18.33 18h69.24v24.18H18.33z"/>
    </clipPath>
    <clipPath id="clip-path-2" transform="translate(-1.05 -.19)">
      <path class="cls-1" d="M19.35 16.25h13.64v6.62H19.35z"/>
    </clipPath>
    <clipPath id="clip-path-3" transform="translate(-1.05 -.19)">
      <path class="cls-1" d="M74.91 19.76h10.38v7.03H74.91z"/>
    </clipPath>
    <clipPath id="clip-path-4" transform="translate(-1.05 -.19)">
      <path class="cls-1" d="M80.01 67.64h9.6v11.15h-9.6z"/>
    </clipPath>
    <clipPath id="clip-path-5" transform="translate(-1.05 -.19)">
      <path class="cls-1" d="M83.97 62.04h3.19v2.61h-3.19z"/>
    </clipPath>
    <clipPath id="clip-path-6" transform="translate(-1.05 -.19)">
      <path class="cls-1" d="M89.16 61.39h3.15v2.94h-3.15z"/>
    </clipPath>
    <clipPath id="clip-path-7" transform="translate(-1.05 -.19)">
      <path class="cls-1" d="M84.51 66.21h6.45v3.51h-6.45z"/>
    </clipPath>
    <clipPath id="clip-path-8" transform="translate(-1.05 -.19)">
      <path class="cls-1" d="M92.06 65.35h2.33v2.04h-2.33z"/>
    </clipPath>
    <clipPath id="clip-path-9" transform="translate(-1.05 -.19)">
      <path class="cls-1" d="M27.97 61.96h52.66v14.91H27.97z"/>
    </clipPath>
    <clipPath id="clip-path-10" transform="translate(-1.05 -.19)">
      <path class="cls-1" d="M74.7 5.67h7.35v18.22H74.7z"/>
    </clipPath>
    <clipPath id="clip-path-11" transform="translate(-1.05 -.19)">
      <path class="cls-1" d="M16.73 8.4h18.06v12.91H16.73z"/>
    </clipPath>
    <clipPath id="clip-path-12" transform="translate(-1.05 -.19)">
      <path class="cls-1" d="M74.95 4.6h10.7v18.06h-10.7z"/>
    </clipPath>
    <clipPath id="clip-path-13" transform="translate(-1.05 -.19)">
      <path class="cls-1" d="M26.17 13.76h47.92v45.71H26.17z"/>
    </clipPath>
    <clipPath id="clip-path-14" transform="translate(-1.05 -.19)">
      <path class="cls-1" d="M49.37 36.06h5.35v2.25h-5.35z"/>
    </clipPath>
    <clipPath id="clip-path-15" transform="translate(-1.05 -.19)">
      <path class="cls-1" d="M49.13 33.61h5.92v4.04h-5.92z"/>
    </clipPath>
    <clipPath id="clip-path-16" transform="translate(-1.05 -.19)">
      <path class="cls-1" d="M31.23 38.39h46.12v26.19H31.23z"/>
    </clipPath>
    <clipPath id="clip-path-17" transform="translate(-1.05 -.19)">
      <path class="cls-1" d="M33.65 38.8h38.24v19.4H33.65z"/>
    </clipPath>
    <clipPath id="clip-path-18" transform="translate(-1.05 -.19)">
      <path class="cls-1" d="M34.05 39.21h37.42v19H34.05z"/>
    </clipPath>
    <clipPath id="clip-path-19" transform="translate(-1.05 -.19)">
      <path class="cls-1" d="M34.46 39.61h36.6v18.55h-36.6z"/>
    </clipPath>
    <clipPath id="clip-path-20" transform="translate(-1.05 -.19)">
      <path class="cls-1" d="M43.08 48.4h20.51v8.46H43.08z"/>
    </clipPath>
    <clipPath id="clip-path-21" transform="translate(-1.05 -.19)">
      <path class="cls-1" d="M45.82 43.7h12.3v9.48h-12.3z"/>
    </clipPath>
    <clipPath id="clip-path-22" transform="translate(-1.05 -.19)">
      <path class="cls-1" d="M45.86 43.54h12.13v4.21H45.86z"/>
    </clipPath>
    <clipPath id="clip-path-23" transform="translate(-1.05 -.19)">
      <path class="cls-1" d="M51.62 46.11h2.25v6.01h-2.25z"/>
    </clipPath>
    <clipPath id="clip-path-24" transform="translate(-1.05 -.19)">
      <path class="cls-1" d="M16.94 8.4h16.1v14.58h-16.1z"/>
    </clipPath>
    <clipPath id="clip-path-25" transform="translate(-1.05 -.19)">
      <path class="cls-1" d="M25.43 23.6h54.62v17.36H25.43z"/>
    </clipPath>
    <clipPath id="clip-path-26" transform="translate(-1.05 -.19)">
      <path class="cls-1" d="M21.02 18.45h64.26v21.69H21.02z"/>
    </clipPath>
    <clipPath id="clip-path-27" transform="translate(-1.05 -.19)">
      <path class="cls-1" d="M27.27 21.44H47.9v13.97H27.27z"/>
    </clipPath>
    <clipPath id="clip-path-28" transform="translate(-1.05 -.19)">
      <path class="cls-1" d="M58.07 23.36h20.47v14.3H58.07z"/>
    </clipPath>
    <clipPath id="clip-path-29" transform="translate(-1.05 -.19)">
      <path class="cls-1" d="M21.02 20.7h63.85v18.79H21.02z"/>
    </clipPath>
    <clipPath id="clip-path-30" transform="translate(-1.05 -.19)">
      <path class="cls-1" d="M22.04 18.9h8.25v1.23h-8.25z"/>
    </clipPath>
    <clipPath id="clip-path-31" transform="translate(-1.05 -.19)">
      <path class="cls-1" d="M48.6 20.9h8.86v2.17H48.6z"/>
    </clipPath>
    <clipPath id="clip-path-32" transform="translate(-1.05 -.19)">
      <path class="cls-1" d="M77.52 22.5h5.02v1.59h-5.02z"/>
    </clipPath>
    <clipPath id="clip-path-33" transform="translate(-1.05 -.19)">
      <path class="cls-1" d="M26.41 21.19h11.81v11.68H26.41z"/>
    </clipPath>
    <clipPath id="clip-path-34" transform="translate(-1.05 -.19)">
      <path class="cls-1" d="M68.41 23.23h11.36v12.46H68.41z"/>
    </clipPath>
    <clipPath id="clip-path-35" transform="translate(-1.05 -.19)">
      <path class="cls-1" d="M27.84 22.01h19.53v11.23H27.84z"/>
    </clipPath>
    <clipPath id="clip-path-36" transform="translate(-1.05 -.19)">
      <path class="cls-1" d="M28.25 29.44h14.38v5.68H28.25z"/>
    </clipPath>
    <clipPath id="clip-path-37" transform="translate(-1.05 -.19)">
      <path class="cls-1" d="M58.65 23.93h19.49v10.42H58.65z"/>
    </clipPath>
    <clipPath id="clip-path-38" transform="translate(-1.05 -.19)">
      <path class="cls-1" d="M62.32 32.47h14.83v4.78H62.32z"/>
    </clipPath>
    <clipPath id="clip-path-39" transform="translate(-1.05 -.19)">
      <path class="cls-1" d="M36.63 26.26h.82v.82h-.82z"/>
    </clipPath>
    <clipPath id="clip-path-40" transform="translate(-1.05 -.19)">
      <path class="cls-1" d="M68.9 28.18h.82V29h-.82z"/>
    </clipPath>
    <clipPath id="clip-path-41" transform="translate(-1.05 -.19)">
      <path class="cls-1" d="M22.21 19.68h26.47v3.88H22.21z"/>
    </clipPath>
    <clipPath id="clip-path-42" transform="translate(-1.05 -.19)">
      <path class="cls-1" d="M57.22 20.99h19.57v3.76H57.22z"/>
    </clipPath>
  </defs>
  <path class="cls-2" d="M24.62 77l.24-.61v-.08c.21-.49.41-1 .62-1.51l.73-2a9.73 9.73 0 0 0 .41-1.15c.33-.9.78-2.08 1.31-3.23a14.8 14.8 0 0 1 .85-1.63c.33-.53.66-1 1-1.51l.28-.41.45-.29a.78.78 0 0 1 .21-.12 6.29 6.29 0 0 1 .61-.28 8 8 0 0 1 1.06-.37c.57-.16 1.23-.33 2-.49 1.15-.25 2.37-.49 3.92-.74 2.33-.36 4.82-.69 7.81-1 5.27-.57 10.54-1 15.6-1.22 2.7-.13 4.74-.17 6.66-.17h1.23a34.19 34.19 0 0 1 4.08.29 7.63 7.63 0 0 1 1.27.28 1.25 1.25 0 0 1 .28.13l.41.16.33.29.37.36a18.35 18.35 0 0 1 1.43 1.6 33.89 33.89 0 0 1 4.16 7 32.32 32.32 0 0 1 2.37 7.23l.69 3.18h-7.52L77 78.55c-.49-2.29-6.66-8.34-9.72-9.52-.33-.12-1.64-.49-5.68-.49a162.75 162.75 0 0 0-21.78 1.84c-2 .94-5.06 4.86-6.82 8.78l-.73 1.59" transform="translate(-1.05 -.19)"/>
  <path class="cls-3" d="M75.68 65a9.71 9.71 0 0 0-1.22-1.34l-.29-.29a.12.12 0 0 1-.08 0 3.82 3.82 0 0 0-.78-.16 34.15 34.15 0 0 0-3.72-.25c-2.57 0-5.14 0-7.72.16-5.14.25-10.33.66-15.44 1.23-2.57.29-5.15.61-7.68 1-1.26.21-2.53.41-3.76.7-.61.12-1.22.28-1.79.45a4.64 4.64 0 0 0-.82.28c-.12 0-.25.08-.29.16-.28.4-.57.81-.86 1.26a16 16 0 0 0-.73 1.43c-.45 1-.86 2-1.23 3s-.77 2.08-1.14 3.14c-.2.53-.41 1.06-.65 1.59a8 8 0 0 1-.33.74h3.47C32.46 74 36 69.15 39 68a160 160 0 0 1 22.67-2 21.91 21.91 0 0 1 6.66.69c3.55 1.39 10.66 8 11.4 11.52h2a29.68 29.68 0 0 0-2.17-6.58A29.91 29.91 0 0 0 75.68 65" transform="translate(-1.05 -.19)"/>
  <path class="cls-2" d="M79.44 80.75l-.44-2.2a29.78 29.78 0 0 0-5.44-11.85 8.22 8.22 0 0 0-.74-.86 29.15 29.15 0 0 0-3.27-.2h-1.14c-1.84 0-3.8 0-6.41.16-5 .25-10.09.65-15.28 1.23-2.9.32-5.31.65-7.52 1-1.43.2-2.57.45-3.59.65l-1.6.41h-.16c-.08.16-.2.29-.29.45-.2.33-.36.69-.65 1.18-.45.94-.82 1.92-1.14 2.78a10 10 0 0 0-.41 1.11c-.25.69-.49 1.38-.78 2.08-.2.53-.45 1.06-.65 1.63v.08c-.08.25-.21.49-.29.7l-.73 1.63h-4.82l-.7-.32h-.08a2.93 2.93 0 0 1-1.59-2.91v-.12l.08-.38.12-.44c.08-.29.16-.62.25-.9a18.12 18.12 0 0 1 .57-1.76c.37-1.06.81-2.21 1.35-3.43a32.38 32.38 0 0 1 1.71-3.39c.29-.53.61-1.06 1-1.68s.78-1.14 1.19-1.67a4.37 4.37 0 0 1 .94-.9 2 2 0 0 1 .61-.37 7.49 7.49 0 0 1 .86-.41c.49-.2.94-.32 1.31-.45.81-.24 1.59-.41 2.16-.53 1.19-.24 2.45-.49 4-.73 2.36-.37 4.86-.66 7.92-1 5.31-.53 10.62-.94 15.77-1.15C64.12 58.12 66 58 67.8 58h1.88a34.2 34.2 0 0 1 4.37.33 15.75 15.75 0 0 1 1.59.36c.17.09.41.17.7.29s.36.2.49.29l.2.16.17.12.16.16.45.45A19.21 19.21 0 0 1 79.44 62a37.69 37.69 0 0 1 4.37 7.48 33.84 33.84 0 0 1 1.55 4 36 36 0 0 1 1 4.09l.49 3.14h-7.41z" transform="translate(-1.05 -.19)"/>
  <path class="cls-2" d="M27.23 80.75L29 76.87c1.51-3.23 5.15-9.15 9.19-10.82h.08c1.35-.49 15-2.09 23.33-2.09 4.66 0 6.41.45 7.31.82 4.21 1.63 11.52 8.54 12.5 12.62l.82 3.35h-55z" transform="translate(-1.05 -.19)"/>
  <path class="cls-2" d="M76.7 80.75l-.49-2.08C75.76 76.75 70 71 67 69.8c-.28-.12-1.47-.44-5.39-.44a168.92 168.92 0 0 0-21.49 1.79c-1.55.78-4.37 4.09-6.21 8l-.73 1.55h-6.77l1.72-3.8c2-4.49 6-10 9.85-11.6 1.51-.61 15.31-2.16 23.69-2.16 3.64 0 6.09.28 7.6.85 4.21 1.64 12.09 8.75 13.07 13.48l.66 3.28z" transform="translate(-1.05 -.19)"/>
  <path class="cls-2" d="M79.85 80.75l-.78-.75c-2.94-2.74-3.76-8.42-2.86-10.75a3.13 3.13 0 0 1 2.9-2.08 2.45 2.45 0 0 1 .78.12A4.64 4.64 0 0 0 82 65.68 3.35 3.35 0 0 1 85 64a9.7 9.7 0 0 1 6.33 3.11 3 3 0 0 1 .45 2.78c0 .08-.08.24-.17.44a57.85 57.85 0 0 1-3.61 9.2l-.78 1.26h-7.35z" transform="translate(-1.05 -.19)"/>
  <path class="cls-2" d="M79.6 80.75l2.54-4.12a45.35 45.35 0 0 0 2.65-4.91c-1.43 1-3.43 1.64-6.41 1.8l-.08-.08v.29a3.32 3.32 0 0 1-3.3-3.19 3.36 3.36 0 0 1 .86-2.37 3.16 3.16 0 0 1 2.24-1.06c2.94-.12 3.31-.82 3.84-1.84a4.72 4.72 0 0 1 4.41-2.21 6.12 6.12 0 0 1 1.56.17 5.34 5.34 0 0 1 4.37 5.06c.12 2.58-1.31 6.34-4.17 11.16l-.78 1.3z" transform="translate(-1.05 -.19)"/>
  <path class="cls-2" d="M90.35 72.71c-3.31 0-6.91-2.17-8.74-4.29a5.82 5.82 0 0 1-1.68-4.74A3.18 3.18 0 0 1 83.24 61a8.78 8.78 0 0 1 1.06.08c.33-1.47 1.1-4.53 4.25-4.53H89a3.54 3.54 0 0 1 3.1 2.53 3.91 3.91 0 0 1 1.72-.45 3.59 3.59 0 0 1 2.61 1.14 3.91 3.91 0 0 1 .66 4.38 3.43 3.43 0 0 1 1.55 2 3.81 3.81 0 0 1-.64 3.37c-1.43 2-4.74 2.94-7.36 3-.16.17-.24.17-.32.17M87.08 5.42c-3 1.88-6.25 6.17-10.25 12a3.24 3.24 0 0 1-2.78 1.43c-1.47 0-3.35-.9-5.52-2.65C65.1 13.47 65 11.92 65 11.3a3.06 3.06 0 0 1 2.86-3.18c3.31-.29 6-2.29 8.7-4.21s5.11-3.68 8-3.68a8.71 8.71 0 0 1 1.75.21" transform="translate(-1.05 -.19)"/>
  <path class="cls-4" d="M68.08 10.86c8-.74 12.71-9 17.57-7.77-3.27 2.05-6.5 6.13-11 12.83-1.1 1.59-8.74-4.86-6.54-5.06" transform="translate(-1.05 -.19)"/>
  <path class="cls-2" d="M16.2 7.06a11.43 11.43 0 0 1 8-2.78 30 30 0 0 1 10 2.08 10.7 10.7 0 0 0 3.39.45h1.51c.94 0 2.94 0 3.8 1.84a3.93 3.93 0 0 1-.45 3.8 10.92 10.92 0 0 1-8.33 4.29H34c-1.84 0-3.55-1-5.55-2.13-2.49-1.39-5.31-3-8.66-3-.45 0-.94 0-1.39.08M77.81 26.87c-1.47 0-4.25-.61-6-4.78A16.37 16.37 0 0 1 70.49 16c0-2.86 1.52-3.63 2.45-3.84a37 37 0 0 0 2.78-3.59C79.44 3.5 82.14.19 85.28.19a3.73 3.73 0 0 1 1.51.29 8.45 8.45 0 0 1 5.56 9.72c-.49 3.31-2.57 7.23-5.64 10.83-1.43 1.67-5.15 5.59-8.45 5.84h-.45" transform="translate(-1.05 -.19)"/>
  <path class="cls-2" d="M29.52 28.42a4.52 4.52 0 0 1-1.06-.08c-5.23-.86-11.77-6.13-14.22-11.56-1.67-3.72-.94-6.25 0-7.72a7.4 7.4 0 0 1 6.54-3.68c3.35 0 6.7 1.84 9.64 3.43a23.43 23.43 0 0 0 3.47 1.68 2.45 2.45 0 0 1 .78-.13 3 3 0 0 1 2.61 1.56c1.35 2.37.53 8.74-1.59 12.42-1.47 2.66-3.69 4.08-6.17 4.08z" transform="translate(-1.05 -.19)"/>
  <path class="cls-2" d="M47.74 74c-12.26 0-24.39-6-28.43-10.37-4.21-4.53-5.72-9.63-4.58-15.31 1-4.62 3.55-8.75 5.8-12.42 1.55-2.54 3-4.9 3.43-6.62 5-22 17.49-24.84 27.82-24.84h2.13c22 .66 24.22 11.28 25.53 17.65a20.89 20.89 0 0 0 .78 3c7.39 18.14 8.62 29 4.08 36.36S70.09 72.3 50.64 73.89c-.94.08-1.92.12-2.9.12z" transform="translate(-1.05 -.19)"/>
  <path class="cls-2" d="M47.29 74.05c-12.5 0-24.06-6.21-27.94-10.41-4.21-4.54-5.72-9.64-4.58-15.32 1-4.62 3.56-8.75 5.8-12.42 1.55-2.54 3-4.9 3.43-6.62 5-22 17.49-24.84 27.82-24.84h2.13c22 .66 24.22 11.28 25.53 17.65a20.89 20.89 0 0 0 .78 3c7.27 17.86 8.45 28.64 4 36-5.11 8.46-17.12 11.2-33.54 12.75a32.81 32.81 0 0 1-3.43.16" transform="translate(-1.05 -.19)"/>
  <path class="cls-2" d="M79.11 58.69c.17-.36.33-.77.49-1.14 1.68-4 2.94-7.52.94-9.76-2.37-2.62-12.37-7.36-21.28-11.52C42.22 28.22 31.68 23 30.17 17.88a4.81 4.81 0 0 1 .49-3.8c2.94-4.61 11.16-9.56 22.39-9.56h.33c10.58.08 18.26 3.15 22.87 9 3.93 5 4.78 10.83 5.44 15.08a17.75 17.75 0 0 0 .77 3.75c8 13.77 4.33 23.94 1.43 28.72z" transform="translate(-1.05 -.19)"/>
  <path class="cls-2" d="M70.74 42.84c-4.13 0-11-1-13.4-3.31-1.88-1.79-2.57-4.78-3.31-7.68a24.65 24.65 0 0 0-1.23-4.08c-.16.45-.36 1-.53 1.47-1.1 3.1-2.65 7.39-5.88 9.72-1.39 1-6.41 1.92-10.29 1.92-3.89 0-6.83-.82-8.79-2.49-2.82-2.37-4.94-6.74-6.37-13l-.2-.12a5.15 5.15 0 0 1-2-1.92 6.93 6.93 0 0 1 .33-5.48 3.32 3.32 0 0 1 2.62-1.75H22a9.81 9.81 0 0 1 1.8.2 12.28 12.28 0 0 0 2.08.24h.37a74.72 74.72 0 0 1 10.83-.81c8.05 0 12.29 1.63 13.89 2.29a2.76 2.76 0 0 1 .32.12 9.26 9.26 0 0 0 2.21.28 3.58 3.58 0 0 0 .94-.08 66.82 66.82 0 0 1 10.29-.82c8.5 0 13 1.92 15 2.78a1.2 1.2 0 0 0 .45.17h.16a12.92 12.92 0 0 0 2-.29c.49-.12 1-.2 1.43-.29h.37a3.59 3.59 0 0 1 3.1 2c.78 1.43 1.31 4.41.21 6.12a6.23 6.23 0 0 1-2.9 2.13 1.73 1.73 0 0 0-.41.2c-.33.57-.9 1.72-1.39 2.66-1.43 2.77-3 6-4.5 7.68-1.3 1.47-3.75 2.16-7.47 2.16" transform="translate(-1.05 -.19)"/>
  <g class="cls-6" clip-path="url(#clip-path)">
    <path class="cls-2" d="M69.1 42.18c-3.27 0-7.89-.49-11.2-2.82C56 38 55.16 35.32 54 31a38 38 0 0 0-1.18-3.8c-.21.49-.45 1.14-.66 1.67-1.22 3.31-2.9 7.81-6 9.69-1.6 1-6.54 1.87-10.38 1.87-4.12 0-7.11-.94-8.82-2.73a21.41 21.41 0 0 1-5.76-11.52c-.08-.37-.17-.86-.25-1.15a4.37 4.37 0 0 1-2.69-4.2A2.89 2.89 0 0 1 21.14 18a3.69 3.69 0 0 1 2.16.81.19.19 0 0 0 .16.09.46.46 0 0 1 .21.08 3.82 3.82 0 0 1 3 3.23 43.85 43.85 0 0 0 1.8 5.8c1.67 4.37 2.86 5.1 3 5.14a14.65 14.65 0 0 0 4.86.74 22.76 22.76 0 0 0 6.58-1c.61-.94 1.84-3.39 2.69-5.07 2.58-5.1 3-5.88 4.13-6.45a4.71 4.71 0 0 1 2.27-.43 11.5 11.5 0 0 1 3.8.65c1.88.82 2.86 3.27 5.06 9.6.41 1.15.9 2.62 1.23 3.35 1.63.78 5.35 1.31 9.23 1.31 1.1 0 1.92 0 2.45-.08L75.1 33c3.11-6.62 3.6-7.4 4.37-8a10 10 0 0 1 5.07-1.71 2.94 2.94 0 0 1 3 2.32c.45 2.37-1.88 3.27-2.65 3.56l-.7.28c-.29.49-.82 1.56-1.22 2.41-3.35 6.54-4.46 8.34-5.72 9.11-1.56.86-5.31 1.27-8.17 1.27" transform="translate(-1.05 -.19)"/>
  </g>
  <g class="cls-6" clip-path="url(#clip-path-2)">
    <path class="cls-2" d="M26 22.83a10.91 10.91 0 0 1-3.31-.69c-.49-.17-.94-.33-1.22-.45A3 3 0 0 1 19.3 19v-2.79H22a3.32 3.32 0 0 1 .81.13c.58.08 2.41.2 3 .24h.37c.49 0 2-.2 2.65-.28a8.73 8.73 0 0 1 1.39-.17h2.33l.45 2.33a2.75 2.75 0 0 1-2 3c-.08 0-.36.13-.61.21a14.09 14.09 0 0 1-4.08 1.06.31.31 0 0 1-.25.08" transform="translate(-1.05 -.19)"/>
  </g>
  <g class="cls-6" clip-path="url(#clip-path-3)">
    <path class="cls-2" d="M80 26.75a5.37 5.37 0 0 1-3-1.22c-1.18-.82-2.08-1.64-2.08-3.07v-2.74h2.66a2.78 2.78 0 0 1 1.1.25c.29.12 1.39.49 1.88.61.16 0 .49-.08 1.14-.2a3 3 0 0 1 .82-.08h2.33l.37 2.28a2.74 2.74 0 0 1-1.84 3l-.49.24a9.79 9.79 0 0 1-2.45.94 1.21 1.21 0 0 0-.41 0" transform="translate(-1.05 -.19)"/>
  </g>
  <path class="cls-2" d="M71.11 86.76h-10v-8.7h10z" transform="translate(-1.05 -.19)"/>
  <path class="cls-3" d="M75.68 65a9.71 9.71 0 0 0-1.22-1.34l-.29-.29a.12.12 0 0 1-.08 0 3.82 3.82 0 0 0-.78-.16 34.15 34.15 0 0 0-3.72-.25c-2.57 0-5.14 0-7.72.16-5.14.25-10.33.66-15.44 1.23-2.57.29-5.15.61-7.68 1-1.26.21-2.53.41-3.76.7-.61.12-1.22.28-1.79.45a4.64 4.64 0 0 0-.82.28c-.12 0-.25.08-.29.16-.28.4-.57.81-.86 1.26a16 16 0 0 0-.73 1.43c-.45 1-.86 2-1.23 3s-.77 2.08-1.14 3.14c-.2.53-.41 1.06-.65 1.59a8 8 0 0 1-.33.74h3.47C32.46 74 36 69.15 39 68a160 160 0 0 1 22.67-2 21.91 21.91 0 0 1 6.66.69c3.55 1.39 10.66 8 11.4 11.52h2a29.68 29.68 0 0 0-2.17-6.58A29.91 29.91 0 0 0 75.68 65" transform="translate(-1.05 -.19)"/>
  <path class="cls-9" d="M74.13 63.31zm7.27 7.31a32.48 32.48 0 0 0-4-6.9 16.28 16.28 0 0 0-1.4-1.55l-.37-.37-.08-.08-.08-.09a1 1 0 0 1-.21-.12 1.34 1.34 0 0 0-.37-.16 6.58 6.58 0 0 0-1.17-.35 35 35 0 0 0-4-.28c-2.66-.05-5.23 0-7.85.12-5.23.2-10.41.61-15.6 1.14-2.58.29-5.19.57-7.8 1-1.31.21-2.58.41-3.89.7-.65.16-1.3.28-2 .49a6.63 6.63 0 0 0-1 .36c-.16.09-.37.17-.57.29a1.91 1.91 0 0 1-.33.2 2.23 2.23 0 0 0-.4.41c-.37.45-.74 1-1.07 1.47s-.65 1-.94 1.56c-.57 1-1.1 2.08-1.59 3.14s-.9 2.13-1.27 3.23a12.31 12.31 0 0 0-.49 1.63c-.08.29-.16.53-.24.82l-.12.41v.2s.08.08.24.21h2.41c.12-.25.2-.49.33-.74.2-.53.45-1.06.65-1.55.41-1.06.78-2.08 1.14-3.15s.78-2.08 1.23-3l.74-1.43a14 14 0 0 1 .85-1.27.92.92 0 0 0 .29-.16c.25-.08.53-.2.82-.29.57-.16 1.18-.32 1.79-.44 1.23-.29 2.5-.49 3.76-.7 2.54-.41 5.11-.73 7.68-1q7.73-.86 15.45-1.23c2.57-.12 5.14-.2 7.72-.16a33.46 33.46 0 0 1 3.71.25c.29 0 .58.12.78.16h.08l.29.29c.45.45.82.89 1.22 1.34a32.32 32.32 0 0 1 3.84 6.46A29.51 29.51 0 0 1 81.77 78h2a25.68 25.68 0 0 0-.9-3.68c-.49-1.27-1-2.49-1.51-3.72" transform="translate(-1.05 -.19)"/>
  <path class="cls-4" d="M68 67.31a20.83 20.83 0 0 0-6.33-.65 159.64 159.64 0 0 0-22.35 1.92c-2.65 1.06-6 5.55-7.8 9.48h47.35C78.09 75 71.51 68.7 68 67.31" transform="translate(-1.05 -.19)"/>
  <path class="cls-10" d="M68.29 66.54a21.64 21.64 0 0 0-6.66-.7A161.55 161.55 0 0 0 39 67.8c-3 1.23-6.5 6-8.38 10.22h.9c1.84-3.89 5.15-8.38 7.8-9.48a159.64 159.64 0 0 1 22.35-1.92c3.1 0 5.27.2 6.33.65C71.47 68.62 78.05 75 78.83 78h.81c-.64-3.5-7.8-10.07-11.35-11.46" transform="translate(-1.05 -.19)"/>
  <path class="cls-3" d="M84.47 66.9c-.5 1-3.07 3.64-5.23 3-1.15-.33-.94 5.72 1.67 8.13h4.74C87 76 89 69.6 89.24 69s-4.28-3.07-4.77-2" transform="translate(-1.05 -.19)"/>
  <path class="cls-9" d="M89.49 68.42a2.7 2.7 0 0 0-2.25-2.58c-1.1-.24-2.57 0-2.94.66-.73 1.38-1.63 3.06-6.09 3.3a.56.56 0 1 0 .05 1.11c4.65-.21 6-2 7-3.84a3 3 0 0 1 2.21 0 1.49 1.49 0 0 1 1 1.43c.12 2.53-2.54 7.23-4 9.6h1.26c1.59-2.78 3.88-7.07 3.76-9.68" transform="translate(-1.05 -.19)"/>
  <g class="cls-12" clip-path="url(#clip-path-4)">
    <path class="cls-13" d="M80.31 78.18c2.9-.7 5.48-3.6 5.68-7.72 0-.78-1.55-2.25-1.55-2.66s4.86.08 5.1 1.23-3 8-4.12 9.19-6.82.37-5.11 0" transform="translate(-1.05 -.19)"/>
  </g>
  <path class="cls-14" d="M82.59 64.09c-.37 2.53 4.57 6 7.92 5.92 2.78-.08 5.92-1.39 5.48-2.94s-3.15.28-3.4-.82 3.15-3.06 1.8-4.53-2.74 2.12-4.21 1.63.29-3.88-1.55-4.09c-2.16-.2-1.35 4.62-3 4.7-1.14.13-2.94-.69-3.06.13" transform="translate(-1.05 -.19)"/>
  <path class="cls-15" d="M82.59 64.09c-.37 2.53 4.57 6 7.92 5.92 2.78-.08 5.92-1.39 5.48-2.94s-3.15.28-3.4-.82 3.15-3.06 1.8-4.53-2.74 2.12-4.21 1.63.29-3.88-1.55-4.09c-2.16-.2-1.35 4.62-3 4.7-1.12.13-2.92-.69-3.04.13z" transform="translate(-1.05 -.19)"/>
  <g class="cls-17" clip-path="url(#clip-path-5)">
    <path class="cls-14" d="M84 64.06c.53.41 2.45.94 2.74.25A4.08 4.08 0 0 0 87.1 62c-.17.65-.37 1.88-1.07 2.16a4.7 4.7 0 0 1-2-.12" transform="translate(-1.05 -.19)"/>
  </g>
  <g class="cls-17" clip-path="url(#clip-path-6)">
    <path class="cls-14" d="M89.27 61.37c-.08.44-.45 2.57.65 2.85.94.25 1.64-.32 2.37-1.51-.41.37-1.43 1.27-2.2.94s-.86-1.18-.82-2.28" transform="translate(-1.05 -.19)"/>
  </g>
  <g class="cls-20" clip-path="url(#clip-path-7)">
    <path class="cls-14" d="M84.54 67.09c5.55-2.74 6.7 1.72 6.41 2.62-2.21.36-6.09-1.92-6.41-2.62" transform="translate(-1.05 -.19)"/>
  </g>
  <g class="cls-17" clip-path="url(#clip-path-8)">
    <path class="cls-14" d="M92.62 65.35c-.94 1.06-.49 1.92.12 2 .77.17 1.8-.65 1.63-.65s-1.71.49-2-.25a1.2 1.2 0 0 1 .25-1.14" transform="translate(-1.05 -.19)"/>
  </g>
  <g class="cls-12" clip-path="url(#clip-path-9)">
    <path class="cls-13" d="M29.17 72.45C47 82.7 82.44 72.28 80.56 68.93c-2.49-4.45-3.48-7.23-9-7S31.21 65 29.78 66.07s-2.94 5-.61 6.38" transform="translate(-1.05 -.19)"/>
  </g>
  <path class="cls-4" d="M68.08 10.86c8-.74 12.71-9 17.57-7.77-3.27 2.05-6.5 6.13-11 12.83-1.1 1.59-8.74-4.86-6.54-5.06" transform="translate(-1.05 -.19)"/>
  <path d="M67.03 10.67c8-.74 12.71-9 17.57-7.77-3.27 2.05-6.5 6.13-11 12.83-1.13 1.59-8.77-4.86-6.57-5.06z" stroke-linecap="round" stroke-linejoin="round" stroke="#e5d0ae" stroke-width="3" fill="none"/>
  <path class="cls-3" d="M18 9.06c3.59-3.35 10.09-2 15.32-.17 3 1.07 6.86.21 7.11.82.65 1.43-3.23 4.37-6.42 4.29S25.64 8 18 9.06" transform="translate(-1.05 -.19)"/>
  <path d="M16.95 8.87c3.59-3.35 10.09-2 15.32-.17 3 1.07 6.86.21 7.11.82.65 1.43-3.23 4.37-6.42 4.29s-8.37-6-16.01-4.94z" stroke="#895b2e" stroke-linecap="round" stroke-linejoin="round" stroke-width="2" fill="none"/>
  <path class="cls-14" d="M73.56 14.82C75.4 15.35 82.38 1.66 85.77 3c10.79 4.29-3.27 20.8-7.72 21.16s-5.51-9.68-4.49-9.35" transform="translate(-1.05 -.19)"/>
  <path class="cls-15" d="M73.56 14.82C75.4 15.35 82.38 1.66 85.77 3c10.79 4.29-3.27 20.8-7.72 21.16s-5.51-9.67-4.49-9.34z" transform="translate(-1.05 -.19)"/>
  <path class="cls-14" d="M34.58 13.18c-3 1.31-13.56-9.76-18-2.65-2.94 4.7 6 14.17 12.34 15.2s7.23-13.24 5.67-12.55" transform="translate(-1.05 -.19)"/>
  <path class="cls-15" d="M34.58 13.18c-3 1.31-13.56-9.76-18-2.65-2.94 4.7 6 14.17 12.34 15.2s7.22-13.24 5.66-12.55z" transform="translate(-1.05 -.19)"/>
  <g clip-path="url(#clip-path-10)">
    <path class="cls-14" d="M81.88 5.67c-.57 1.88-5.39 6.74-4.74 10.9.24 1.56 1.88 6.13 2.57 6s2.45-1.27 2.29-1a23 23 0 0 1-3.31 2.37c-.86-.45-4.49-8.91-4-9.36 1.59-1.43 6.45-8.78 7.15-8.86" transform="translate(-1.05 -.19)"/>
  </g>
  <g clip-path="url(#clip-path-11)">
    <path class="cls-14" d="M16.71 10.81c3.26-2 9.23-1.14 12.7 2.25 1.23 1.23 1.59 5.31-1.18 8.09-1.11 1.1 6.53-3.92 6.57-5.39a2 2 0 0 0-1.63-2.29C29 11.92 24.55 8.32 20.71 8.4a4.58 4.58 0 0 0-4 2.41" transform="translate(-1.05 -.19)"/>
  </g>
  <g class="cls-20" clip-path="url(#clip-path-12)">
    <path class="cls-14" d="M83.2 4.59c7.43 4.09-4.54 10.3-3.64 18-1.56-.14-5.39-7.59-4.45-8.27 1.31-.9 6.82-10 8.09-9.73" transform="translate(-1.05 -.19)"/>
  </g>
  <path class="cls-10" d="M25.84 29.69a7.09 7.09 0 0 0 .21-1.64 11.21 11.21 0 0 1 .2-1.67 2.52 2.52 0 0 1 .25-.82 6 6 0 0 0 .28-.77c.21-.54.41-1.07.66-1.56a35.21 35.21 0 0 1 3.3-5.88 30.17 30.17 0 0 1 4.38-5 18.21 18.21 0 0 1 5.59-3.56 23.23 23.23 0 0 1 6.46-1.63 44.4 44.4 0 0 1 6.62-.29 61.15 61.15 0 0 1 6.61.45 31 31 0 0 1 6.54 1.55A21.3 21.3 0 0 1 70 10.28a15.32 15.32 0 0 1 2.78 2.09A12.73 12.73 0 0 1 75 15.06a17.41 17.41 0 0 1 1.47 3.15 29.75 29.75 0 0 1 .9 3.27c.24 1.1.41 2.16.65 3.18.12.49.29 1 .45 1.47s.41 1 .57 1.56c.37 1 .78 2.08 1.15 3.1a87.1 87.1 0 0 1 3.47 12.75 43.83 43.83 0 0 1 .69 6.57 22.16 22.16 0 0 1-.77 6.54c-.17.53-.33 1.06-.53 1.55a14.65 14.65 0 0 0-.66 1.51 4.2 4.2 0 0 1-.28.78c-.13.25-.29.49-.45.74a10.16 10.16 0 0 1-1 1.34 17.61 17.61 0 0 1-5.22 4.17 31.6 31.6 0 0 1-6.21 2.49 66.5 66.5 0 0 1-6.5 1.51c-2.21.41-4.37.7-6.54 1l-3.3.37-1.64.17-1.67.12a41.55 41.55 0 0 1-13.28-1.6 47 47 0 0 1-6.3-2.26 41.08 41.08 0 0 1-6-3.15 22.13 22.13 0 0 1-2.73-2.08c-.21-.21-.45-.41-.66-.61s-.36-.45-.57-.66c-.37-.45-.73-.9-1.06-1.35a14.56 14.56 0 0 1-2-13.23 31.39 31.39 0 0 1 2.74-6.17c1.1-1.92 2.28-3.8 3.43-5.64q.86-1.41 1.59-2.82a22.79 22.79 0 0 0 1.06-3.14zm1.64.37a15.11 15.11 0 0 1-1.31 3.22c-.53 1-1.1 2-1.68 2.9-1.14 1.88-2.32 3.72-3.35 5.6a29.4 29.4 0 0 0-2.53 5.84 14.17 14.17 0 0 0-.49 6.13 13.3 13.3 0 0 0 2.41 5.6c.29.4.66.81 1 1.22a7.55 7.55 0 0 0 .53.57c.17.21.37.37.53.54a21.67 21.67 0 0 0 2.5 1.92 39.84 39.84 0 0 0 5.67 3 44.94 44.94 0 0 0 6.09 2.16 47.5 47.5 0 0 0 6.29 1.31 36.85 36.85 0 0 0 6.38.29l1.59-.13 1.63-.16c1.07-.08 2.17-.2 3.27-.33 2.17-.2 4.33-.49 6.46-.85s4.24-.78 6.33-1.35a44 44 0 0 0 6.08-2.09 18.49 18.49 0 0 0 5.3-3.45c.36-.37.73-.78 1.06-1.18.16-.21.32-.45.49-.66s.37-.41.53-.65A7.13 7.13 0 0 0 83 58a11.19 11.19 0 0 0 .49-1.55 21.9 21.9 0 0 0 .53-6.5A38.42 38.42 0 0 0 83 43.54a93.58 93.58 0 0 0-4.12-12.38l-1.23-3-.65-1.54c-.21-.53-.41-1.1-.57-1.63-.29-1.1-.49-2.17-.74-3.23a22.89 22.89 0 0 0-.82-3.06 12.8 12.8 0 0 0-3.22-5.23 16.86 16.86 0 0 0-5.27-3.35 29.14 29.14 0 0 0-6.22-1.72 58 58 0 0 0-6.46-.69 44.5 44.5 0 0 0-6.53.12 22.56 22.56 0 0 0-6.29 1.55 17.56 17.56 0 0 0-5.4 3.48 18.05 18.05 0 0 0-3.8 5.14 35.52 35.52 0 0 0-2.28 6 14.64 14.64 0 0 0-.4 1.56c-.08.25-.12.53-.21.78s0 .28-.08.41a1.42 1.42 0 0 1-.16.36c-.21.49-.45 1-.7 1.47-.08.45-.24.94-.36 1.48z" transform="translate(-1.05 -.19)"/>
  <path class="cls-4" d="M26.66 29.89C24.94 37.49 10 49.5 21.35 61.8c3.88 4.2 16.46 10.58 29.09 9.39 32.84-3.1 41.13-11 27.28-45-2.24-5.51.29-18.26-23.85-19-10.13-.29-22.31 1.1-27.21 22.71" transform="translate(-1.05 -.19)"/>
  <path d="M32.34 15a15.23 15.23 0 0 1 4-4.08 21.83 21.83 0 0 1 5.07-2.58 36.07 36.07 0 0 1 11.11-1.9 41.68 41.68 0 0 1 11.23 1.15 23.63 23.63 0 0 1 5.35 2.08 18.59 18.59 0 0 1 4.66 3.51A19.37 19.37 0 0 1 77.07 18 26.92 26.92 0 0 1 79 23.4a53 53 0 0 1 1 5.6 27.14 27.14 0 0 0 .45 2.7 6 6 0 0 0 .33 1.18l.12.25.08.16.37.62A30.92 30.92 0 0 1 85 44.68a24.84 24.84 0 0 1 .08 5.72 20.25 20.25 0 0 1-1.43 5.51 25.62 25.62 0 0 1-1.27 2.58l-.37.61c-.12.21-.24.37-.4.61 0 0 0 .09-.09.13s.17.28-.65 0c-.2-.37-.08-.29-.12-.37s0-.16 0-.25l.12-.36.21-.66a26.52 26.52 0 0 0 1.26-5.35 12.55 12.55 0 0 0 0-2.74 6.58 6.58 0 0 0-.81-2.49 3.11 3.11 0 0 0-.41-.53c-.17-.16-.29-.33-.45-.49a12.38 12.38 0 0 0-1-.9 14.43 14.43 0 0 0-2.33-1.43 12 12 0 0 0-5.31-.94 24.06 24.06 0 0 0-5.4.94c-.89.25-1.75.53-2.65.82-.45.16-.9.29-1.35.41a3.91 3.91 0 0 1-.73.16 4.17 4.17 0 0 1-.7.08 42.28 42.28 0 0 1-5.64.29 30 30 0 0 1-5.56-.65 28.53 28.53 0 0 1-5.4-1.8 22.84 22.84 0 0 1-4.82-3 25.05 25.05 0 0 1-3.92-4.12 25.46 25.46 0 0 1-4.53-10.34 24 24 0 0 1-.45-5.68 17.48 17.48 0 0 1 .36-2.86 12.45 12.45 0 0 1 1.1-2.58zm.81.53a8.3 8.3 0 0 0-.93 2.47 17.93 17.93 0 0 0-.37 2.66 21.65 21.65 0 0 0 .49 5.39 24.68 24.68 0 0 0 4.49 9.81 24.21 24.21 0 0 0 3.76 3.88 22.45 22.45 0 0 0 4.58 2.9 24.53 24.53 0 0 0 5.14 1.75 26.63 26.63 0 0 0 5.4.7 34.57 34.57 0 0 0 5.47-.21l.69-.08.66-.12 1.3-.37c.9-.24 1.8-.53 2.7-.73a23.14 23.14 0 0 1 5.6-.78 12.77 12.77 0 0 1 5.51 1.2 12 12 0 0 1 2.41 1.47 10.58 10.58 0 0 1 1.07.94l.49.49a2.79 2.79 0 0 1 .44.57 6.23 6.23 0 0 1 .95 2.68A13.08 13.08 0 0 1 83 53a28.73 28.73 0 0 1-1.11 5.52l-.2.65-.08.33v.12s.08.08-.09-.28c-.77-.29-.49.08-.57 0 .08-.17.21-.37.33-.58s.2-.4.33-.61c.4-.82.77-1.63 1.1-2.49a21.1 21.1 0 0 0 .9-10.66 25.47 25.47 0 0 0-1.47-5.19 38.47 38.47 0 0 0-2.33-4.9l-.33-.58-.08-.16v-.16a2.39 2.39 0 0 1-.17-.37 14.26 14.26 0 0 1-.45-1.47c-.2-.94-.36-1.88-.49-2.78-.28-1.84-.53-3.63-1-5.39a23.93 23.93 0 0 0-1.75-5.07 17.83 17.83 0 0 0-2.94-4.37 19.93 19.93 0 0 0-9.11-5.31A38.48 38.48 0 0 0 52.6 7.87a33.86 33.86 0 0 0-10.74 1.6A19.37 19.37 0 0 0 37 11.84a12.41 12.41 0 0 0-3.85 3.71z" transform="translate(-1.05 -.19)" fill="#e5bfa1"/>
  <path class="cls-9" d="M31.85 14.82a13.94 13.94 0 0 1 2.08-2.49 17.67 17.67 0 0 1 2.45-1.92 25.08 25.08 0 0 1 5.48-2.74 33.74 33.74 0 0 1 11.88-1.8 37.78 37.78 0 0 1 11.81 2A21.75 21.75 0 0 1 71 10.69 19.35 19.35 0 0 1 75.36 15a22.87 22.87 0 0 1 2.77 5.44 36.09 36.09 0 0 1 1.43 5.8c.17 1 .29 1.92.45 2.9s.29 1.92.45 2.77a4.63 4.63 0 0 0 .37 1.19v.16l.08.17.17.32.36.66c.45.85.9 1.75 1.31 2.65a32.89 32.89 0 0 1 1.88 5.68 26 26 0 0 1 .65 5.92A22.2 22.2 0 0 1 82.14 60a.55.55 0 0 1-.74.21.57.57 0 0 1-.24-.66c.57-1.47 1.18-2.86 1.63-4.29a13.53 13.53 0 0 0 .82-4.26 6.29 6.29 0 0 0-1.23-3.92.87.87 0 0 0-.16-.2l-.08-.09-.09-.12-.36-.37a6.8 6.8 0 0 0-.82-.69c-.57-.45-1.23-.86-1.84-1.27-2.57-1.59-5.31-3-8.09-4.37s-5.59-2.68-8.37-3.97c-5.64-2.57-11.28-5.15-16.83-7.93-2.78-1.43-5.52-2.85-8.21-4.57a44.1 44.1 0 0 1-4-3.06 8.5 8.5 0 0 1-1.71-2.13 3.77 3.77 0 0 1-.49-1.63 4 4 0 0 1 .08-1 2.16 2.16 0 0 1 .16-.49 1.7 1.7 0 0 1 .21-.41zm2.29 1.39c-.09.12 0 .08-.09.12s0 0 0 .08v.16a2.25 2.25 0 0 0 .17.58 5.41 5.41 0 0 0 1.18 1.47 22.88 22.88 0 0 0 3.47 2.69c2.5 1.68 5.19 3.15 7.93 4.62 5.43 2.86 11 5.51 16.58 8.21 2.78 1.35 5.56 2.74 8.34 4.13a86.93 86.93 0 0 1 8.17 4.61 21.71 21.71 0 0 1 1.92 1.43c.33.25.61.53.94.82.16.16.28.29.45.49l.08.12.12.13c.08.08.12.16.21.24a7.94 7.94 0 0 1 1.1 2.29 8.83 8.83 0 0 1 .29 2.49 15.65 15.65 0 0 1-1 4.74c-.53 1.51-1.18 2.9-1.79 4.33l-1-.49a20.85 20.85 0 0 0 2.77-10.79 27.48 27.48 0 0 0-2.65-10.9c-.41-.86-.82-1.72-1.31-2.54l-.73-1.3a6.59 6.59 0 0 1-.54-1.56c-.24-1-.4-2-.57-2.94s-.32-1.92-.49-2.82a32.93 32.93 0 0 0-1.47-5.43 20.05 20.05 0 0 0-2.57-4.82 16.11 16.11 0 0 0-3.88-3.76 19.59 19.59 0 0 0-4.9-2.41 35.9 35.9 0 0 0-11-1.63 31.26 31.26 0 0 0-5.64.43 28.89 28.89 0 0 0-5.35 1.34A23.84 23.84 0 0 0 38 12.69a13.25 13.25 0 0 0-2.13 1.64 11.42 11.42 0 0 0-1.71 1.88z" transform="translate(-1.05 -.19)"/>
  <path class="cls-3" d="M32.75 15.27c-4.5 6.94.85 33.62 29.08 30 3-.36 12.91-5.68 19.61 1.76 3.64 4.09-1.26 14.42 0 12.26 1.43-2.37 6.91-11.52-1.31-25.62-2.61-4.51 1.72-26.29-26.55-26.57-10.82 0-17.85 3.55-20.83 8.17" transform="translate(-1.05 -.19)"/>
  <g class="cls-12" clip-path="url(#clip-path-13)">
    <path class="cls-13" d="M32 17c8.13-5.23 32.72-4.87 40.56 7.68 5.23 8.33-4.33 28.92-7.88 31.53S56.26 61.08 43.35 58C32.41 55.36 48.87 45.18 36 43.71c-11.72-1.34-12.91-21-4-26.75" transform="translate(-1.05 -.19)"/>
  </g>
  <g class="cls-20" clip-path="url(#clip-path-14)">
    <path class="cls-13" d="M54.72 37.19c0 .61-1.18 1.14-2.65 1.14s-2.66-.49-2.66-1.14 1.19-1.14 2.66-1.14 2.65.53 2.65 1.14" transform="translate(-1.05 -.19)"/>
  </g>
  <path class="cls-31" d="M50 33.85c.61-.4 3.88-.28 4.29.17s1.3 2.12.28 2.86c-.37.24-.37-.78-1.18-.61-1 .2-.45 1.47-1.23 1.47-1.18-.05 0-1.39-1.06-1.56-.78-.16-.94.62-1.31.53-1.18-.24-.65-2.28.21-2.86" transform="translate(-1.05 -.19)"/>
  <g clip-path="url(#clip-path-15)">
    <path class="cls-31" d="M51.79 33.61a4.14 4.14 0 0 0-1.75.25c-.86.57-1.39 2.61-.25 2.82.29 0 .45-.58 1.06-.58h.21c1 .17-.08 1.56 1.06 1.56.73 0 .2-1.23 1.23-1.43h.16c.57 0 .65.65.9.65a.15.15 0 0 0 .12 0c1.06-.74.16-2.45-.29-2.86a6 6 0 0 0-2.49-.37m0 .29a6.66 6.66 0 0 1 2.33.28 2.74 2.74 0 0 1 .65 1.8.84.84 0 0 1-.28.57l-.08-.08a1.12 1.12 0 0 0-.86-.53.35.35 0 0 0-.21 0c-.69.16-.81.7-.94 1.06s-.12.37-.24.37c-.33 0-.33-.08-.33-.45s0-.94-.73-1.06h-.25a1.49 1.49 0 0 0-.94.45s-.12.12-.16.12a.52.52 0 0 1-.41-.45 2.32 2.32 0 0 1 .74-1.88 3.73 3.73 0 0 1 1.71-.24" transform="translate(-1.05 -.19)"/>
  </g>
  <g clip-path="url(#clip-path-16)">
    <path d="M77.27 44.58c1.23 7.84-8.57 17.69-21.77 19.73s-22.92-9.76-24.14-17.65 6.86-4.86 20.06-6.86 24.63-3.07 25.85 4.78" transform="translate(-1.05 -.19)" fill="#f7e8d0"/>
  </g>
  <g class="cls-17" clip-path="url(#clip-path-17)">
    <path class="cls-36" d="M42.84 56.52a8 8 0 0 1-.77-1.92l-.62-2A23.76 23.76 0 0 0 40 48.8a10.44 10.44 0 0 0-2.37-3.23 7.33 7.33 0 0 0-3.43-1.68.77.77 0 0 1-.49-1 .85.85 0 0 1 .94-.53 41.57 41.57 0 0 0 9 1.06 67.73 67.73 0 0 0 9.19-.49 80.72 80.72 0 0 0 9.07-1.59c3-.69 6-1.51 8.87-2.49a.78.78 0 0 1 1 .49.76.76 0 0 1-.25.86c-.08.08-.24.2-.37.32s-.24.29-.36.41c-.25.29-.49.62-.74.94a23.37 23.37 0 0 0-1.35 2C67.84 45.2 67 46.59 66.25 48S64.7 50.88 64 52.31c-.36.74-.69 1.47-1 2.21-.16.36-.28.73-.45 1.14a3 3 0 0 0-.16.57V56.4a.09.09 0 0 1-.08.08.55.55 0 0 1-.16.12 1.21 1.21 0 0 1-.29.16 13.12 13.12 0 0 1-2.37.66 23.29 23.29 0 0 1-2.41.36 46.84 46.84 0 0 1-4.86.41 32.75 32.75 0 0 1-4.86-.08 14.61 14.61 0 0 1-2.41-.41 5.19 5.19 0 0 1-1.15-.45 2.4 2.4 0 0 1-.94-.73m0 0a2.2 2.2 0 0 0 .94.73 8.22 8.22 0 0 0 1.15.41 11.32 11.32 0 0 0 2.41.37 39.39 39.39 0 0 0 4.86 0c1.63-.08 3.23-.29 4.82-.49.78-.12 1.59-.25 2.37-.45a14.14 14.14 0 0 0 2.29-.69 1.18 1.18 0 0 0 .24-.17q.12-.06.12-.12a4.63 4.63 0 0 1 .17-.61c.12-.41.24-.78.37-1.19.28-.77.57-1.51.89-2.29.66-1.51 1.31-3 2-4.45s1.43-2.94 2.2-4.37c.37-.73.78-1.43 1.23-2.16a9.78 9.78 0 0 1 .72-1.04c.12-.16.25-.36.37-.53a5.91 5.91 0 0 1 .49-.53l.78 1.39a87.14 87.14 0 0 1-9 2.53A88.79 88.79 0 0 1 53 44.47a67.06 67.06 0 0 1-9.4.49 45.48 45.48 0 0 1-9.4-1.19l.45-1.63a14 14 0 0 1 3.52 2.69 13.3 13.3 0 0 1 2.12 3.68 38.28 38.28 0 0 1 1.23 4c.16.66.36 1.35.53 2a8.35 8.35 0 0 0 .81 2" transform="translate(-1.05 -.19)"/>
  </g>
  <g class="cls-17" clip-path="url(#clip-path-18)">
    <path class="cls-36" d="M42.85 56.52a7.61 7.61 0 0 1-.78-1.88c-.2-.65-.36-1.3-.57-2a28.82 28.82 0 0 0-1.43-3.88 11 11 0 0 0-2.29-3.27 7.32 7.32 0 0 0-3.43-1.88.42.42 0 0 1-.24-.53.44.44 0 0 1 .49-.28 42.93 42.93 0 0 0 9.15 1.06 69.27 69.27 0 0 0 9.25-.49c3.07-.37 6.09-.94 9.11-1.59s6-1.52 8.91-2.5a.42.42 0 0 1 .53.25.47.47 0 0 1-.12.45 6.73 6.73 0 0 0-.78.81c-.25.29-.49.66-.74.94-.45.66-.89 1.35-1.3 2.05-.86 1.35-1.68 2.78-2.45 4.2s-1.54 2.86-2.16 4.34l-1 2.2a10.24 10.24 0 0 0-.41 1.14 3.14 3.14 0 0 0-.16.58c0 .16-.17.2-.25.28a1.05 1.05 0 0 1-.28.17 13.3 13.3 0 0 1-2.37.65c-.78.16-1.6.29-2.41.41-1.6.2-3.23.37-4.86.45a32.91 32.91 0 0 1-4.87-.08 17.58 17.58 0 0 1-2.39-.41 10.24 10.24 0 0 1-1.14-.41 2.36 2.36 0 0 1-1-.78m0 0a2.51 2.51 0 0 0 .94.78c.37.16.74.28 1.14.41a12.2 12.2 0 0 0 2.41.36 31.67 31.67 0 0 0 4.87 0c1.63-.09 3.22-.25 4.86-.49.77-.13 1.59-.25 2.41-.45a10.78 10.78 0 0 0 2.28-.7.76.76 0 0 0 .25-.16c.08 0 .16-.12.16-.17a3 3 0 0 1 .17-.61 9.55 9.55 0 0 1 .4-1.14c.29-.78.62-1.51.94-2.25.66-1.51 1.35-2.94 2.09-4.41s1.47-2.9 2.29-4.33a22.06 22.06 0 0 1 1.26-2.08 9.31 9.31 0 0 1 .7-1 6.67 6.67 0 0 1 .85-1l.41.74a85.57 85.57 0 0 1-9 2.53c-3 .7-6.09 1.23-9.2 1.64a66.27 66.27 0 0 1-9.35.49 48.22 48.22 0 0 1-9.32-1.11l.21-.77a9 9 0 0 1 3.51 2.41 12.65 12.65 0 0 1 2.17 3.55 30.51 30.51 0 0 1 1.3 3.92c.17.66.37 1.31.58 2a4.47 4.47 0 0 0 .65 1.8" transform="translate(-1.05 -.19)"/>
  </g>
  <path class="cls-38" d="M42.88 56.49c2.08 3.26 19.12 1 19.4-.29.74-3.31 6.87-15 8.83-16.63-3.52 1.23-21.78 7.07-36.61 3.52 6.66 2.24 6.74 10.86 8.38 13.4" transform="translate(-1.05 -.19)"/>
  <g clip-path="url(#clip-path-19)">
    <path class="cls-38" d="M71.05 39.64c-2.74.93-14.26 4.65-26.19 4.65a46.57 46.57 0 0 1-10.42-1.1c6.7 2.16 6.78 10.83 8.42 13.36.77 1.22 3.76 1.67 7.15 1.67 5.47 0 12.05-1.14 12.25-2 .74-3.35 6.82-15 8.79-16.62m-2.29 1.59c-2.66 4-6.5 11.72-7.27 14.62-1 .58-6.3 1.56-11.48 1.56-4.17 0-6-.7-6.46-1.31A11.37 11.37 0 0 1 42.49 53c-.69-2.49-1.68-5.92-4-8.29a52.53 52.53 0 0 0 6.41.37 89 89 0 0 0 23.86-3.88" transform="translate(-1.05 -.19)"/>
  </g>
  <path class="cls-14" d="M49.86 58.2c-3.51 0-5.8-.49-6.7-1.47-.08-.08-.08-.57.33-1.51a11 11 0 0 1 9.23-6.41h1c6.13 0 9.81 3.1 9.81 3.63-.08.17-.16.41-.29.74-.32.77-.81 2-1.26 3.31-.53.53-6.66 1.75-12.14 1.75" transform="translate(-1.05 -.19)"/>
  <path class="cls-31" d="M53.74 48.56a9.48 9.48 0 0 0-1.06 0c-7.15.49-10.46 7.56-9.68 8.44 1.06 1.14 3.8 1.55 6.9 1.55 5.52 0 12.18-1.27 12.38-1.88.61-1.84 1.31-3.35 1.59-4.08s-3.88-4-10.09-4m0 .53c5.48 0 9.16 2.62 9.52 3.39a5.07 5.07 0 0 0-.24.62c-.33.77-.82 1.92-1.27 3.22-.86.49-6.58 1.6-11.89 1.6-3.31 0-5.59-.49-6.45-1.35a5.67 5.67 0 0 1 1.27-2.86 10.57 10.57 0 0 1 8-4.62h1" transform="translate(-1.05 -.19)"/>
  <g clip-path="url(#clip-path-20)">
    <path class="cls-14" d="M43.08 56.53c-.49 2.21 13-8.62 20.3-3.43 1.51-2-6.54-5.39-11.24-4.61-4 .69-8 3.22-9.06 8" transform="translate(-1.05 -.19)"/>
  </g>
  <path d="M45.82 44.88c.69 1.23 2 7.19 2.49 7.32s3.88 1.06 4.33.86.45-1.35.94-1 .61.82 1 .62a14.18 14.18 0 0 0 3.27-2.29c.33-.61.29-4 0-6.7-1.39.65-9.6 1.51-12 1.22" transform="translate(-1.05 -.19)" fill="#fff7e3"/>
  <g clip-path="url(#clip-path-21)">
    <path class="cls-43" d="M57.89 43.68C56.67 44.21 50.25 45 47 45a10.14 10.14 0 0 1-1.18 0c.69 1.22 2 7.19 2.49 7.31a30.31 30.31 0 0 0 4.13.9.3.3 0 0 0 .2 0c.41-.17.45-1.07.78-1.07a.15.15 0 0 1 .16.09c.37.2.53.65.86.65a.24.24 0 0 0 .16 0 14.18 14.18 0 0 0 3.27-2.29c.37-.61.29-4 0-6.74m-.2.37c.24 2.78.24 5.72 0 6.21a12.84 12.84 0 0 1-3.15 2.2c-.08 0-.2-.12-.29-.24a3.64 3.64 0 0 0-.4-.37.58.58 0 0 0-.33-.12c-.37 0-.49.37-.61.65s-.17.41-.29.45h-.12a26.87 26.87 0 0 1-3.64-.78 1.92 1.92 0 0 0-.37-.08 24.51 24.51 0 0 1-1.18-3.59c-.37-1.27-.7-2.45-1-3.15h.78a57.28 57.28 0 0 0 10.62-1.18" transform="translate(-1.05 -.19)"/>
  </g>
  <g clip-path="url(#clip-path-22)">
    <path d="M46.78 47.76c-.2-2.2 10-2.94 11.23-2.73 0-.53-.08-.86-.08-1.47-1.67.86-10.82 1.75-12 1.39a19.73 19.73 0 0 1 .9 2.81" transform="translate(-1.05 -.19)" fill="#eadcbe"/>
  </g>
  <g clip-path="url(#clip-path-23)">
    <path class="cls-43" d="M51.85 46.1c.2.49.41.94.57 1.43l.49 1.47.45 1.47.45 1.47-.7.2-.32-1.51-.37-1.51-.37-1.47c-.16-.49-.28-1-.45-1.43z" transform="translate(-1.05 -.19)"/>
  </g>
  <g clip-path="url(#clip-path-24)">
    <path class="cls-14" d="M17.46 11.52C22.85 12.9 22 22.22 25.18 23s7.44-7.68 7.85-9.51c-6.21-2.66-9.11-5.76-13.57-4.87-1.47.29-3.51 2.54-2 2.95" transform="translate(-1.05 -.19)" opacity=".4"/>
  </g>
  <g class="cls-17" clip-path="url(#clip-path-25)">
    <path class="cls-13" d="M32.41 38.77c6.78.53 12.37.82 14.38-1.27s2.73-11.31 6-11.07c2.78.21 3.72 12.22 5.52 12.54s14.5 3.84 17.69.58 4.61-5.31 3.88-7.27S60.55 24 56.75 23.61s-29.45 2.86-30.1 4.46-1.35 1.39-1.23 3.1c.25 3.31.2 7.07 7 7.6" transform="translate(-1.05 -.19)"/>
  </g>
  <path class="cls-38" d="M51.42 25.11c.49 0 2.41-.16 2.86.21 2.45 1.92 2.36 9.8 4.94 12.25 2.29 2.21 14.79 3.8 17 1.31s5.35-10.09 6.09-10.66 2.37-.94 2.86-1.72.08-4.08-1.06-3.92-3.31.86-4.66.49-7.93-4.53-24.47-2a11 11 0 0 1-4.29-.29c-1.1-.28-7.31-3.88-23.94-1.51-1.63.24-3.92-.49-4.74-.41s-1.06 2.66-.73 3.31 2 1.23 2.24 2 1.67 8.83 5.59 12.14c4.17 3.51 14.79 1.06 15.73.4 4.21-3 5.15-11.6 6.58-11.6" transform="translate(-1.05 -.19)"/>
  <g clip-path="url(#clip-path-26)">
    <path d="M37.09 18.46a70.78 70.78 0 0 0-10.46.82 4.47 4.47 0 0 1-.73 0c-1.43 0-3.11-.45-3.88-.45h-.12c-.82.08-1.07 2.66-.74 3.31s2 1.23 2.25 2 1.71 8.91 5.59 12.22c1.64 1.39 4.33 1.83 7 1.83 4.09 0 8.13-1 8.7-1.43 4.25-3 5.23-11.64 6.66-11.64h1.23a3.78 3.78 0 0 1 1.59.21c2.45 1.92 2.37 9.8 4.94 12.25 1.47 1.39 7.11 2.57 11.52 2.57 2.5 0 4.62-.36 5.4-1.26 2.16-2.49 5.35-10.09 6.08-10.66s2.37-.94 2.86-1.72.08-3.92-1-3.92H84a26.93 26.93 0 0 1-3.72.57 3.61 3.61 0 0 1-.94-.12c-1.06-.33-5.19-2.82-14.58-2.82a65.17 65.17 0 0 0-9.89.78 7.88 7.88 0 0 1-1.35.08 11.9 11.9 0 0 1-2.9-.37 36.55 36.55 0 0 0-13.48-2.21m0 .82c7.4 0 11.2 1.47 12.58 2a3.16 3.16 0 0 0 .7.25 14.12 14.12 0 0 0 3.1.41 7.73 7.73 0 0 0 1.47-.13 65 65 0 0 1 9.77-.77c7.76 0 11.8 1.71 13.56 2.49.37.16.61.24.82.33a3.66 3.66 0 0 0 1.18.16 13.84 13.84 0 0 0 2.7-.37c.37-.08.73-.16 1-.2a4.4 4.4 0 0 1 .41 2.69 3.87 3.87 0 0 1-1.35.78 6.25 6.25 0 0 0-1.27.65c-.45.33-.89 1.19-2.2 3.8s-2.82 5.6-4 7c-.4.49-1.87 1-4.82 1-4.29 0-9.76-1.15-11-2.33s-1.72-3.55-2.29-6c-.66-2.7-1.27-5.23-2.7-6.38a3.41 3.41 0 0 0-2.08-.41h-1.29c-1.14 0-1.63 1.35-2.49 3.8-.94 2.7-2.29 6.34-4.62 8a25.18 25.18 0 0 1-8.25 1.31c-3 0-5.23-.57-6.49-1.64-1.56-1.3-3.72-4.37-5.27-11.35a1.71 1.71 0 0 1-.09-.37c-.2-.78-.94-1.23-1.55-1.64a3.78 3.78 0 0 1-.73-.57 4 4 0 0 1 .24-2.16 7.77 7.77 0 0 1 1.15.16 17.76 17.76 0 0 0 2.67.27 3 3 0 0 0 .86-.08 85.08 85.08 0 0 1 10.25-.74" transform="translate(-1.05 -.19)" fill="#1a1a1a"/>
  </g>
  <g class="cls-17" clip-path="url(#clip-path-27)">
    <path class="cls-53" d="M28 24.32c-.37.49-.62 7.72 2.45 9.68 2 1.31 10.5 1 12.21.08 2.66-1.51 5.27-8.38 4.54-9.36-1.2-1.63-10.04-3.79-16.66-2.08A5.34 5.34 0 0 0 28 24.32z" transform="translate(-1.05 -.19)"/>
  </g>
  <path class="cls-2" d="M28 24.3c-.37.49-.62 7.72 2.45 9.68 2 1.3 10.5 1 12.21.08 2.66-1.51 5.27-8.38 4.54-9.36-1.2-1.63-10.04-3.8-16.66-2.08A5.65 5.65 0 0 0 28 24.3" transform="translate(-1.05 -.19)"/>
  <g class="cls-17" clip-path="url(#clip-path-28)">
    <path class="cls-53" d="M77.93 27.47c.32.53-.41 7.72-3.68 9.31-2.17 1-10.54-.37-12.09-1.51-2.45-1.84-4.17-9-3.31-9.89 1.43-1.47 10.46-2.45 16.79.09a5.71 5.71 0 0 1 2.29 2z" transform="translate(-1.05 -.19)"/>
  </g>
  <path class="cls-2" d="M77.93 27.48c.33.53-.41 7.72-3.68 9.32-2.16 1-10.54-.37-12.09-1.52-2.45-1.83-4.17-9-3.31-9.88 1.43-1.47 10.46-2.45 16.79.08a5.76 5.76 0 0 1 2.29 2" transform="translate(-1.05 -.19)"/>
  <path d="M37.69 28.71c-.2 1.59-1 2.78-1.8 2.65s-1.18-1.47-1-3.06 1-2.78 1.8-2.66 1.18 1.47 1 3.07M70.25 30.5c.16 1.6-.33 3-1.06 3s-1.52-1.15-1.68-2.74.33-2.94 1.06-3S70 29 70.25 30.5" transform="translate(-1.05 -.19)"/>
  <g class="cls-6" clip-path="url(#clip-path-29)">
    <path class="cls-38" d="M22 21.17c.94.61 1.8.25 2 1.47s3 11.85 6.54 13.07c5.76 2 13 0 14-.57s5.6-10.95 6.38-11.36 3.22 0 3.75.29c1.6.7 4.54 11.89 5.31 12.46 3.56 2.49 15 2.29 15.49 1.63s4.82-10.45 5.59-11c1.11-.85 3.68-1.43 3.76-1.06s-2.08.74-2.73 1.51-5 10.18-6.3 11-11.31 2.17-16.38-1.39c-2.41-1.75-3.35-11.92-5.27-12.5a5.36 5.36 0 0 0-3.06-.08c-1.19.78-2.86 9.44-6.42 11.6-1.42.86-12.5 3-15.8-.44-6.17-6.46-4.29-12.22-6.3-13-1.34-.57-1.63-1.3-1.63-1.79s.57-.13 1.06.2" transform="translate(-1.05 -.19)"/>
  </g>
  <g class="cls-6" clip-path="url(#clip-path-30)">
    <path class="cls-38" d="M22.1 19a15.4 15.4 0 0 0 4 1.1 20.84 20.84 0 0 0 4.08-1.19c.62-.2-3.18.49-4.12.45s-3.64-.24-4-.36" transform="translate(-1.05 -.19)"/>
  </g>
  <g class="cls-6" clip-path="url(#clip-path-31)">
    <path class="cls-38" d="M48.6 20.93c1.18.53 1.71 1.87 2.86 2s2.53.32 3.18 0a17.9 17.9 0 0 1 2.74-1.31 39 39 0 0 1-5.07.41 28.64 28.64 0 0 1-3.71-1.06" transform="translate(-1.05 -.19)"/>
  </g>
  <g class="cls-6" clip-path="url(#clip-path-32)">
    <path class="cls-38" d="M77.59 22.49c-.49-.21 1.8 1.63 2.49 1.55A13.39 13.39 0 0 0 82.53 23a17.35 17.35 0 0 1-2.24.28 14.1 14.1 0 0 1-2.7-.77" transform="translate(-1.05 -.19)"/>
  </g>
  <g class="cls-6" clip-path="url(#clip-path-33)">
    <path class="cls-38" d="M26.72 23.24c3-3 10.21-2 11.52-1.71-8.62.61-8.78 1.26-10.29 2.78a18 18 0 0 0 .85 8.53c-1.51-.81-3.1-8.58-2.08-9.6" transform="translate(-1.05 -.19)"/>
  </g>
  <g class="cls-6" clip-path="url(#clip-path-34)">
    <path class="cls-38" d="M79.59 26.46c-2.62-3.35-9.85-3.31-11.2-3.19 8.46 1.76 8.54 2.41 9.85 4.13a17.71 17.71 0 0 1-1.92 8.33c1.55-.65 4.13-8.17 3.27-9.27" transform="translate(-1.05 -.19)"/>
  </g>
  <g clip-path="url(#clip-path-35)">
    <path class="cls-62" d="M28.09 29.27c.29-3.51.62-6.37 7.6-6.58 5.6-.16 10.05 1.15 10.67 2.49.4.86.08 4.62-2.7 8 1.8-1.59 4.66-7.92 3.43-8.7-4.53-2.9-13.56-3-16.91-1.8a6.41 6.41 0 0 0-2.25 1.64 19.4 19.4 0 0 0 .16 4.9" transform="translate(-1.05 -.19)"/>
  </g>
  <g clip-path="url(#clip-path-36)">
    <path class="cls-62" d="M28.29 29.52c1.06 6.87 13.6 4.78 14.34 4.5 0 .37-6.58 2.2-12.06.08-2.2-.82-2.36-5.35-2.28-4.58" transform="translate(-1.05 -.19)"/>
  </g>
  <g clip-path="url(#clip-path-37)">
    <path class="cls-62" d="M77.34 32.34c.16-3.56.16-6.37-6.7-7.44-5.52-.86-10.09-.12-10.91 1.15-.49.77-.65 4.57 1.72 8.33-1.6-1.84-3.68-8.41-2.33-9.07C64 23 73 24 76.11 25.6a5.78 5.78 0 0 1 2 1.92c0 .86-.45 4.37-.82 4.82" transform="translate(-1.05 -.19)"/>
  </g>
  <g clip-path="url(#clip-path-38)">
    <path class="cls-62" d="M77.1 32.55c-1.87 6.66-14.09 3.07-14.78 2.7 0 .37 6.25 3 12 1.59 2.28-.57 3.06-5.06 2.81-4.29" transform="translate(-1.05 -.19)"/>
  </g>
  <g class="cls-20" clip-path="url(#clip-path-39)">
    <path class="cls-2" d="M37.48 26.66a.41.41 0 0 0-.41-.4.41.41 0 1 0 0 .81.39.39 0 0 0 .41-.41" transform="translate(-1.05 -.19)"/>
  </g>
  <g class="cls-20" clip-path="url(#clip-path-40)">
    <path class="cls-2" d="M69.75 28.58a.41.41 0 0 0-.82 0 .38.38 0 0 0 .41.41.44.44 0 0 0 .41-.41" transform="translate(-1.05 -.19)"/>
  </g>
  <g class="cls-69" clip-path="url(#clip-path-41)">
    <path class="cls-62" d="M22.22 20.73a2.68 2.68 0 0 0 2.9 1.06c12.7-1.63 19.73-1.59 23.2 1.64.74.69.33-2.09-1.06-2.45a40.71 40.71 0 0 0-20.1-.09c-1.68.25-2.86-.12-4.94-.16" transform="translate(-1.05 -.19)"/>
  </g>
  <g class="cls-69" clip-path="url(#clip-path-42)">
    <path class="cls-62" d="M57.35 22.37c-.29.28-.16 3.22 1.23 2.12C62.58 21.3 71 22 76.8 24c-.94-1.84-7.77-3.11-11.61-3.06-1.84.08-7.06.61-7.84 1.43" transform="translate(-1.05 -.19)"/>
  </g>
  <path class="cls-62" d="M81.52 24.7c0 .13-.65.21-1.43.21s-1.43-.08-1.43-.21.66-.2 1.43-.2a3 3 0 0 1 1.43.2M26.46 21.19c0 .12-.66.12-1.43 0s-1.39-.33-1.35-.45.65-.12 1.43 0 1.39.29 1.35.45" transform="translate(-1.05 -.19)"/>
  <path class="cls-2" d="M105.56 86.65a3.72 3.72 0 0 0-3.76-3.59 4 4 0 0 0-1.63.32l-.33.17-.28.2a7.34 7.34 0 0 1-1.72.94 8.55 8.55 0 0 1 .08-1.69v-.08c.45-4.37-.45-6.94-2.74-7.6a3.78 3.78 0 0 0-1.18-.19 5.86 5.86 0 0 0-3.39 1.23 3.86 3.86 0 0 0-3.19-1.31 4.46 4.46 0 0 0-4.37 2.53 3.76 3.76 0 0 0-.24.74 6.37 6.37 0 0 0-6-3.72 9.52 9.52 0 0 0-5.11 1.47s-.08 0-.12.08a15.24 15.24 0 0 0-4.86 5.6 9 9 0 0 0-4-5.11c-.09 0-.13-.08-.17-.08 2.17-3.8 4-8.87 2.9-13.69-1.27-5.18-4.29-5.87-5.97-5.87a6.82 6.82 0 0 0-2.17.37h-.08a10.77 10.77 0 0 0-4.9 3.59 32.28 32.28 0 0 0-4.66 13.57c-.08.85-.2 1.75-.28 2.65a4.6 4.6 0 0 0-2.58-1.71 3.91 3.91 0 0 0-1.22-.17 6 6 0 0 0-4 1.8 3.64 3.64 0 0 0-2.9-1.63h-.29a6.76 6.76 0 0 0-4.4 1.7 4 4 0 0 0-3.52-2h-.61a4.43 4.43 0 0 0-4.37 2.62 3.13 3.13 0 0 0-.16.49 7.76 7.76 0 0 0-6.54-3h-.3c-1.75 0-6.08.78-8.78 6.78a21.06 21.06 0 0 0-1 2.78 3.41 3.41 0 0 0-1.51-.32 3.5 3.5 0 0 0-2.94 1.55c-.41.61-1.72 2.74-1.06 4.86a3.78 3.78 0 0 0 2.28 2.45c1 .41 2.29.78 3.23 1.06a10.66 10.66 0 0 0 3.51 4.29 8 8 0 0 0 5 1.51 18.33 18.33 0 0 0 6.9-1.59l.12-.08a4.89 4.89 0 0 0 2.54 1.35 5.17 5.17 0 0 0 1.22.12c1.8 0 3.07-.94 4.25-2.66A5.39 5.39 0 0 0 35 99.71c.12 0 .2.08.37.08A4 4 0 0 0 39 97.56a5.24 5.24 0 0 0 4.7 2.65 8.52 8.52 0 0 0 3.68-.9h.08c.61-.32 1.1-.61 1.51-.81a12.47 12.47 0 0 0 5.89 1.5 7.21 7.21 0 0 0 1.31-.08h.25a48.26 48.26 0 0 0 10.86-3.31 10.25 10.25 0 0 0 7 3.43 10.11 10.11 0 0 0 1.1 0 14.12 14.12 0 0 0 6.46-1.59 5.28 5.28 0 0 0 2 1.34 3.86 3.86 0 0 0 1.51.29c3.31 0 4.86-3.92 5.27-5.27l.78-2.12a6 6 0 0 0 2.73 1.67 8.07 8.07 0 0 0 2 .29c3.64 0 7.15-2.58 7.68-3a6.21 6.21 0 0 0 1.8-5" transform="translate(-1.05 -.19)"/>
  <path d="M72.19 87.74s-.45-1.63 1.27-4.74 3-1.42 3-1.42 1.47 1.59-.21 4a4.9 4.9 0 0 1-4.08 2.2M59.08 90a4.88 4.88 0 0 1-6.7 3s-.54-1.83 1-6.94S58.54 83 58.54 83s2.5 1.92.54 7m-3.56-21.46s2.94-7.72 3.68-4S53 79.49 53 79.49c.08-2.49 2.53-10.95 2.53-10.95m-42.29 19.2c.12-4.94 3.35-7.1 4.49-6s.74 3.43-1.43 4.86-3.06 1.18-3.06 1.18m89.59-.81a1.16 1.16 0 0 0-1.68-1.07s-2.41 1.88-4.53 1.68-1.43-4.94-1.43-4.94.45-4.37-.78-4.74-2.78 1.1-2.78 1.1a15.39 15.39 0 0 0-2.81 4.82l-.25.08s.29-4.74 0-5.84c-.25-.53-2.53-.49-2.9.45a57.3 57.3 0 0 0-2.37 10.42s-3.59 3-6.7 3.55S72.72 91 72.72 91s8.5-2.37 8.21-9.15-6.86-4.29-7.6-3.72-4.53 2.87-5.68 9.25c0 .2-.12 1.18-.12 1.18a29.85 29.85 0 0 1-5.1 2.78s5.1-8.62-1.15-12.54c-2.82-1.72-5.1 1.88-5.1 1.88s8.45-9.4 6.57-17.37c-.9-3.8-2.78-4.2-4.53-3.59a7.92 7.92 0 0 0-3.64 2.57 28.85 28.85 0 0 0-4.21 12.34c-.77 7.39-2 16.26-2 16.26a6.2 6.2 0 0 1-3.1 1.67c-1.51.09-.82-4.45-.82-4.45s1.15-6.9 1.06-8.09-.16-1.79-1.55-2.2-2.86 1.34-2.86 1.34-4 6-4.29 6.91l-.2.37-.21-.25s2.78-8.17.13-8.29-4.42 2.9-4.42 2.9-3 5.11-3.14 5.68l-.21-.25s1.27-5.92 1-7.39a1.33 1.33 0 0 0-1.64-1.15s-1.76-.2-2.2.94a83.42 83.42 0 0 0-2.33 11s-4.37 3.15-7.23 3.15-2.58-1.84-2.58-1.84 10.54-3.6 7.68-10.74a5.18 5.18 0 0 0-4.9-2.37c-2.12 0-4.62 1.34-6.33 5.14a12.33 12.33 0 0 0-1.15 4.86s-2 .37-3-.44-1.59 0-1.59 0-1.76 2.49 0 3.14 4.33 1.31 4.33 1.31a7.61 7.61 0 0 0 3 4.41C15 98.57 21 95.83 21 95.83l2.45-1.47s.08 2.21 1.88 2.53 2.53 0 5.68-7.59c1.84-3.88 2-3.68 2-3.68h.21S31.75 93 32.32 95s2.9 1.8 2.9 1.8 1.31.45 2.33-3.23a49.68 49.68 0 0 1 3-7.51h.24s-.85 7.39.45 9.8 4.78.74 4.78.74a26.23 26.23 0 0 0 2.78-1.64 9.84 9.84 0 0 0 6.91 2c9-1.79 12.25-4.2 12.25-4.2A7.47 7.47 0 0 0 74.35 97a10.56 10.56 0 0 0 8.5-3.07 3.33 3.33 0 0 0 1.88 3c1.92.77 3.23-3.4 3.23-3.4l3.23-8.62h.28s.16 5.52 3.35 6.42 7.31-2.29 7.31-2.29.9-.45.7-2.12" transform="translate(-1.05 -.19)" fill="#e24b31"/>
</svg>
