<svg id="Layer_1" data-name="Layer 1" xmlns="http://www.w3.org/2000/svg" viewBox="0 0 111.74 100.46">
  <defs>
    <style>
      .cls-1{fill:#fff}.cls-2{fill:#53c1de}
    </style>
  </defs>
  <path class="cls-1" d="M.76 52.19C.76 60.62 9 68.5 22 72.94c-2.6 13.06-.47 23.59 6.64 27.69 7.31 4.22 18.2 1.3 28.54-7.74 10.08 8.67 20.26 12.08 27.36 8 7.31-4.23 9.53-15.47 6.86-28.93 13.53-4.48 21.1-11.19 21.1-19.74 0-8.25-8.25-15.38-21.07-19.79 2.87-14 .44-24.29-7-28.57C77.32-.28 67 3.31 56.8 12.2 46.16 2.76 36-.12 28.56 4.16 21.43 8.29 19.39 19 22 32.31 9.44 36.68.76 44 .76 52.19z" transform="translate(-.76 -2.14)"/>
  <path class="cls-2" d="M88.72 36.78c-1-.35-2.1-.69-3.2-1 .18-.73.35-1.46.5-2.17 2.41-11.74.83-21.2-4.57-24.31-5.17-3-13.64.13-22.19 7.57-.82.71-1.65 1.47-2.47 2.26-.55-.52-1.1-1-1.64-1.51-9-8-17.95-11.31-23.34-8.19-5.17 3-6.7 11.88-4.53 23 .21 1.07.46 2.17.74 3.28-1.27.36-2.5.75-3.68 1.16-10.5 3.66-17.21 9.4-17.21 15.36 0 6.15 7.2 12.31 18.14 16.05.87.3 1.76.58 2.69.84-.3 1.21-.56 2.39-.78 3.55-2.08 10.93-.46 19.61 4.7 22.58 5.33 3.07 14.27-.08 23-7.69.69-.61 1.38-1.24 2.07-1.91.89.86 1.79 1.68 2.68 2.44 8.37 7.26 16.74 10.19 21.9 7.21 5.32-3.08 7-12.41 4.8-23.75-.17-.87-.37-1.75-.59-2.65.63-.19 1.24-.38 1.84-.58 11.38-3.77 18.78-9.86 18.78-16.09 0-6-6.92-11.76-17.64-15.45z" transform="translate(-.76 -2.14)"/>
  <path class="cls-1" d="M86.25 64.3c-.54.18-1.1.35-1.67.52a98.39 98.39 0 0 0-5-12.57 99.6 99.6 0 0 0 4.83-12.39c1 .29 2 .6 3 .93 9.18 3.16 14.78 7.83 14.78 11.44 0 3.83-6.05 8.81-15.87 12.07zm-4.08 8.07a35.72 35.72 0 0 1 .48 13.1c-.59 3.19-1.78 5.31-3.25 6.16-3.12 1.81-9.81-.54-17-6.75-.82-.71-1.65-1.47-2.49-2.27A99.6 99.6 0 0 0 68.2 72a98 98 0 0 0 13.44-2c.2.82.38 1.62.53 2.4zM41 91.32c-3.06 1.08-5.49 1.11-7 .26-3.13-1.81-4.43-8.78-2.66-18.12.21-1.07.45-2.17.73-3.3a99.32 99.32 0 0 0 13.37 1.94A103.82 103.82 0 0 0 54 82.62q-1 .91-1.89 1.74a35.84 35.84 0 0 1-11.11 7zm-14.32-27a35.82 35.82 0 0 1-11.57-6.15c-2.46-2.1-3.7-4.2-3.7-5.89 0-3.62 5.38-8.23 14.37-11.36 1.09-.38 2.23-.74 3.41-1.07A103.83 103.83 0 0 0 34 52.33 104 104 0 0 0 29.09 65c-.84-.24-1.66-.5-2.45-.77zm4.8-32.66c-1.86-9.53-.62-16.72 2.49-18.52 3.32-1.92 10.66.82 18.4 7.69.5.43 1 .89 1.49 1.37a102.28 102.28 0 0 0-8.45 10.46 103.36 103.36 0 0 0-13.25 2.06c-.25-1-.48-2.06-.68-3.06zm42.77 10.52c-1-1.69-2-3.35-3-5 3.17.4 6.2.93 9 1.58a90.88 90.88 0 0 1-3.18 8.55c-.9-1.71-1.85-3.44-2.85-5.17zm-17.46-17a87.88 87.88 0 0 1 5.84 7q-2.91-.13-5.89-.14c-2 0-3.91 0-5.84.14 1.93-2.55 3.91-4.91 5.89-7zm-17.57 17c-1 1.7-1.91 3.42-2.8 5.13-1.23-2.93-2.29-5.8-3.15-8.58 2.83-.64 5.85-1.16 9-1.55-1.05 1.63-2.06 3.3-3.05 5zm3.14 25.33a88.52 88.52 0 0 1-9.15-1.47c.88-2.83 2-5.77 3.22-8.76.89 1.72 1.82 3.43 2.81 5.14q1.51 2.6 3.12 5.09zm14.55 12c-2-2.17-4-4.56-6-7.14 1.9.07 3.84.11 5.8.11s4-.05 6-.13a91.37 91.37 0 0 1-5.82 7.16zm20.23-22.35a86.87 86.87 0 0 1 3.33 8.73 90.69 90.69 0 0 1-9.25 1.58c1-1.64 2-3.32 3-5s2-3.51 2.88-5.26zm-6.55 3.14C69 63 67.45 65.56 65.83 68c-2.94.21-6 .32-9.09.32s-6.09-.1-9-.28c-1.68-2.46-3.31-5-4.85-7.7-1.54-2.65-2.95-5.33-4.23-8 1.28-2.67 2.69-5.35 4.22-8q2.3-4 4.81-7.66c2.95-.22 6-.34 9-.34 3.08 0 6.11.12 9.06.34 1.64 2.42 3.24 5 4.78 7.64s3 5.35 4.28 8c-1.29 2.65-2.72 5.34-4.27 8zM79.34 13c3.32 1.92 4.61 9.65 2.52 19.78a67.5 67.5 0 0 1-.44 2 101.84 101.84 0 0 0-13.27-2.09 98.2 98.2 0 0 0-8.39-10.47c.76-.74 1.53-1.43 2.28-2.1 7.33-6.37 14.18-8.89 17.3-7.09z" transform="translate(-.76 -2.14)"/>
  <path class="cls-2" d="M56.74 43.36a8.87 8.87 0 1 1-8.86 8.87 8.87 8.87 0 0 1 8.86-8.87" transform="translate(-.76 -2.14)"/>
</svg>
